<svg width="48" height="48" viewBox="0 0 48 48" fill="none" xmlns="http://www.w3.org/2000/svg">
<mask id="mask0_206_728" style="mask-type:alpha" maskUnits="userSpaceOnUse" x="0" y="0" width="48" height="48">
<rect width="48" height="48" fill="#D9D9D9"/>
</mask>
<g mask="url(#mask0_206_728)">
<path d="M41.6743 21.9433C41.6123 21.9431 41.5503 21.9429 41.4865 21.9427C41.2779 21.9422 41.0693 21.9423 40.8607 21.9424C40.71 21.9422 40.5593 21.9419 40.4086 21.9416C39.9937 21.9408 39.5789 21.9407 39.164 21.9406C38.7169 21.9404 38.2698 21.9397 37.8226 21.9391C36.8446 21.9378 35.8665 21.9373 34.8884 21.9369C34.2779 21.9366 33.6673 21.9362 33.0568 21.9358C31.3668 21.9346 29.6768 21.9337 27.9868 21.9334C27.8245 21.9333 27.8245 21.9333 27.659 21.9333C27.5505 21.9333 27.4421 21.9333 27.3303 21.9332C27.1106 21.9332 26.8908 21.9332 26.6711 21.9331C26.562 21.9331 26.453 21.9331 26.3407 21.9331C24.5741 21.9327 22.8075 21.9311 21.0409 21.9289C19.2277 21.9267 17.4145 21.9255 15.6013 21.9254C14.583 21.9253 13.5647 21.9248 12.5464 21.9231C11.6794 21.9216 10.8124 21.9212 9.94537 21.9219C9.50295 21.9223 9.06055 21.9222 8.61814 21.9209C8.21306 21.9197 7.808 21.9198 7.40292 21.921C7.25645 21.9211 7.10998 21.9209 6.96352 21.92C6.11561 21.9156 5.43466 21.9313 4.69996 22.3989C4.24198 22.8569 4.04256 23.3468 3.99997 23.9855C4.00923 24.6067 4.23625 25.1551 4.67663 25.5955C5.22504 25.9748 5.66118 26.0737 6.31852 26.0744C6.3805 26.0746 6.44248 26.0748 6.50633 26.075C6.71493 26.0755 6.92352 26.0754 7.13211 26.0753C7.28281 26.0755 7.43351 26.0758 7.58422 26.0761C7.99907 26.0769 8.41392 26.077 8.82878 26.0771C9.27592 26.0773 9.72307 26.078 10.1702 26.0786C11.1483 26.0799 12.1263 26.0804 13.1044 26.0808C13.7149 26.0811 14.3255 26.0815 14.936 26.0819C16.626 26.0831 18.316 26.084 20.006 26.0843C20.1683 26.0844 20.1683 26.0844 20.3339 26.0844C20.4423 26.0844 20.5508 26.0844 20.6625 26.0845C20.8822 26.0845 21.102 26.0845 21.3218 26.0846C21.4308 26.0846 21.5398 26.0846 21.6521 26.0846C23.4187 26.085 25.1853 26.0866 26.952 26.0888C28.7652 26.091 30.5784 26.0922 32.3916 26.0923C33.4098 26.0924 34.4281 26.0929 35.4464 26.0946C36.3134 26.0961 37.1804 26.0965 38.0474 26.0958C38.4899 26.0954 38.9323 26.0955 39.3747 26.0968C39.7798 26.098 40.1848 26.0979 40.5899 26.0967C40.7364 26.0966 40.8828 26.0968 41.0293 26.0977C41.8772 26.1021 42.5582 26.0864 43.2929 25.6188C43.7508 25.1608 43.9503 24.6709 43.9928 24.0322C43.9836 23.411 43.7566 22.8626 43.3162 22.4222C42.7678 22.0429 42.3316 21.944 41.6743 21.9433Z" fill="#112C37"/>
<path d="M41.9996 8.02505C41.858 8.02415 41.858 8.02415 41.7135 8.02322C41.6104 8.02351 41.5073 8.0238 41.4011 8.0241C41.2911 8.02368 41.1811 8.02325 41.0677 8.02282C40.7627 8.02184 40.4577 8.0217 40.1526 8.02192C39.8235 8.02196 39.4944 8.02093 39.1653 8.02004C38.5206 8.01849 37.8759 8.01798 37.2312 8.01788C36.7071 8.01779 36.183 8.0174 35.6589 8.01681C34.1728 8.01517 32.6867 8.01431 31.2007 8.01445C31.1206 8.01446 31.0404 8.01446 30.9579 8.01447C30.8376 8.01448 30.8376 8.01448 30.7149 8.01449C29.4151 8.01457 28.1153 8.01278 26.8155 8.01015C25.4807 8.00747 24.1459 8.00618 22.8111 8.00634C22.0618 8.0064 21.3125 8.00589 20.5632 8.00388C19.9252 8.00218 19.2872 8.00178 18.6492 8.00304C18.3238 8.00365 17.9984 8.00367 17.673 8.00205C17.3199 8.00061 16.9669 8.00147 16.6138 8.00291C16.4602 8.00147 16.4602 8.00147 16.3034 8C15.607 8.00628 15.1097 8.1176 14.5677 8.58536C14.5261 8.63745 14.4844 8.68955 14.4415 8.74322C14.3769 8.821 14.3769 8.821 14.311 8.90035C13.9476 9.45702 13.9444 10.0168 14.0099 10.6624C14.1745 11.2886 14.5856 11.646 15.1299 11.969C15.404 12.0604 15.5808 12.0744 15.8664 12.0751C15.9611 12.0756 16.0558 12.0761 16.1534 12.0766C16.2577 12.0766 16.3621 12.0767 16.4696 12.0767C16.5802 12.0771 16.6908 12.0775 16.8048 12.0779C17.1124 12.079 17.42 12.0796 17.7276 12.08C18.0591 12.0806 18.3907 12.0817 18.7222 12.0827C19.5232 12.0849 20.3241 12.0863 21.1251 12.0875C21.3513 12.0879 21.5775 12.0882 21.8037 12.0886C23.2084 12.091 24.613 12.093 26.0177 12.0942C26.3431 12.0945 26.6685 12.0947 26.9938 12.095C27.0747 12.0951 27.1556 12.0952 27.2389 12.0952C28.549 12.0964 29.859 12.0995 31.1691 12.1034C32.514 12.1074 33.8589 12.1096 35.2038 12.11C35.959 12.1104 36.7141 12.1115 37.4693 12.1145C38.1124 12.1172 38.7555 12.1182 39.3987 12.1171C39.7267 12.1167 40.0548 12.1169 40.3828 12.1192C40.7387 12.1217 41.0946 12.1206 41.4506 12.1191C41.6055 12.121 41.6055 12.121 41.7636 12.123C42.4804 12.1156 42.9365 11.9563 43.458 11.461C43.8653 11.012 44.018 10.5393 43.9983 9.93539C43.9054 9.26927 43.6426 8.76213 43.1182 8.34364C42.7513 8.11782 42.4292 8.02574 41.9996 8.02505Z" fill="#112C37"/>
<path d="M41.7998 35.9298C41.7215 35.9293 41.6432 35.9288 41.5625 35.9283C41.2997 35.9269 41.0369 35.9269 40.7741 35.9268C40.5858 35.9261 40.3976 35.9253 40.2093 35.9244C39.6975 35.9224 39.1857 35.9216 38.6739 35.9211C38.3541 35.9208 38.0344 35.9202 37.7146 35.9195C36.5991 35.9172 35.4835 35.916 34.368 35.9157C33.3282 35.9153 32.2885 35.9125 31.2487 35.9086C30.3561 35.9054 29.4634 35.904 28.5707 35.9039C28.0376 35.9038 27.5044 35.903 26.9713 35.9003C26.4697 35.8979 25.9681 35.8977 25.4664 35.8992C25.2825 35.8994 25.0986 35.8987 24.9147 35.8973C24.6632 35.8953 24.4118 35.8963 24.1603 35.898C24.0879 35.8968 24.0155 35.8956 23.941 35.8943C23.2872 35.9043 22.8372 36.1813 22.3806 36.6379C22.0122 37.2247 21.8812 37.7086 21.9712 38.4054C22.0984 38.9058 22.3567 39.319 22.7689 39.6336C23.2738 39.9327 23.7014 39.9826 24.2735 39.9824C24.3502 39.9828 24.4268 39.9831 24.5057 39.9835C24.7635 39.9845 25.0212 39.9848 25.2789 39.9852C25.4633 39.9858 25.6477 39.9864 25.8321 39.9871C26.3339 39.9887 26.8357 39.9897 27.3375 39.9904C27.651 39.9909 27.9645 39.9915 28.278 39.9921C29.259 39.9939 30.24 39.9952 31.221 39.996C32.3532 39.9969 33.4854 39.9993 34.6177 40.0031C35.4928 40.0059 36.368 40.0073 37.2431 40.0076C37.7658 40.0078 38.2884 40.0087 38.8111 40.011C39.3031 40.0132 39.795 40.0136 40.287 40.0126C40.4672 40.0126 40.6475 40.0132 40.8278 40.0144C42.7393 40.0273 42.7393 40.0273 43.4208 39.4185C43.8513 38.7913 44.0316 38.2596 43.9327 37.495C43.7706 36.8267 43.3489 36.4111 42.7901 36.0408C42.4648 35.9148 42.1437 35.9287 41.7998 35.9298Z" fill="#112C37"/>
</g>
</svg>
